# xmcd
#
# Track frame offsets:
#       150
#       15787
#       34357
#       47520
#       57839
#       73185
#       91909
#       106727
#       126343
#       144317
#       167537
#       184073
#       190859
#       219471
#
# Disc length: 3114 seconds
#
# Revision: 0
# Processed by: cddbd v1.5.1PL0 Copyright (c) Steve Scherf et al.
# Submitted via: WaveLab 4.01
#
DISCID=b80c280e
DTITLE=Danny Kyle - Easy Street
DYEAR=2004
DGENRE=
TTITLE0=Use Me Up
TTITLE1=Fall At Your Feet
TTITLE2=Broken Hearted Man Blues
TTITLE3=Where It All Began
TTITLE4=Ease My Blues
TTITLE5=The Habit I Can't Break
TTITLE6=She Got A Hold On Me
TTITLE7=Come Rain Or Shine
TTITLE8=I Got The Blues
TTITLE9=Easy Street
TTITLE10=Five Knuckle Shuffle
TTITLE11=Amazing Grace
TTITLE12=Not In My Name
TTITLE13=For You
EXTD=
EXTT0=
EXTT1=
EXTT2=
EXTT3=
EXTT4=
EXTT5=
EXTT6=
EXTT7=
EXTT8=
EXTT9=
EXTT10=
EXTT11=
EXTT12=
EXTT13=
PLAYORDER=
